<svg xmlns="http://www.w3.org/2000/svg" viewBox="0 0 1024 1024" width="1024" height="1024">
<rect width="1024" height="1024" rx="224" fill="#0D1B2A"/>
<circle cx="512" cy="512" r="330" fill="none" stroke="#2EC4B6" stroke-width="26"/>
<circle cx="512" cy="512" r="260" fill="none" stroke="#1B6E8C" stroke-width="14"/>
<g transform="rotate(0 512 512)">
<line x1="512" y1="182" x2="512" y2="252" stroke="#2EC4B6" stroke-width="18" transform="rotate(0 512 512)"/><line x1="512" y1="182" x2="512" y2="252" stroke="#2EC4B6" stroke-width="18" transform="rotate(45 512 512)"/><line x1="512" y1="182" x2="512" y2="252" stroke="#2EC4B6" stroke-width="18" transform="rotate(90 512 512)"/><line x1="512" y1="182" x2="512" y2="252" stroke="#2EC4B6" stroke-width="18" transform="rotate(135 512 512)"/><line x1="512" y1="182" x2="512" y2="252" stroke="#2EC4B6" stroke-width="18" transform="rotate(180 512 512)"/><line x1="512" y1="182" x2="512" y2="252" stroke="#2EC4B6" stroke-width="18" transform="rotate(225 512 512)"/><line x1="512" y1="182" x2="512" y2="252" stroke="#2EC4B6" stroke-width="18" transform="rotate(270 512 512)"/><line x1="512" y1="182" x2="512" y2="252" stroke="#2EC4B6" stroke-width="18" transform="rotate(315 512 512)"/>
</g>
<rect x="340" y="420" width="18" height="184" fill="#FFFFFF"/>
<rect x="376" y="420" width="10" height="184" fill="#FFFFFF"/>
<rect x="404" y="420" width="28" height="184" fill="#FFFFFF"/>
<rect x="450" y="420" width="10" height="184" fill="#FFFFFF"/>
<rect x="478" y="420" width="18" height="184" fill="#FFFFFF"/>
<rect x="514" y="420" width="10" height="184" fill="#FFFFFF"/>
<rect x="542" y="420" width="28" height="184" fill="#FFFFFF"/>
<rect x="588" y="420" width="18" height="184" fill="#FFFFFF"/>
<rect x="624" y="420" width="10" height="184" fill="#FFFFFF"/>
<rect x="652" y="420" width="28" height="184" fill="#FFFFFF"/>
</svg>