<svg xmlns="http://www.w3.org/2000/svg" viewBox="0 0 1024 1024" width="1024" height="1024">
<rect width="1024" height="1024" rx="224" fill="#FFFFFF" stroke="#E2E8F0" stroke-width="8"/>
<rect x="250" y="330" width="26" height="364" fill="#111111"/>
<rect x="302" y="330" width="14" height="364" fill="#111111"/>
<rect x="342" y="330" width="40" height="364" fill="#111111"/>
<rect x="408" y="330" width="14" height="364" fill="#111111"/>
<rect x="448" y="330" width="26" height="364" fill="#111111"/>
<rect x="500" y="330" width="14" height="364" fill="#111111"/>
<rect x="540" y="330" width="40" height="364" fill="#111111"/>
<rect x="606" y="330" width="26" height="364" fill="#111111"/>
<rect x="658" y="330" width="14" height="364" fill="#111111"/>
<rect x="698" y="330" width="40" height="364" fill="#111111"/>
<rect x="764" y="330" width="14" height="364" fill="#111111"/>
<rect x="804" y="330" width="26" height="364" fill="#111111"/>
<circle cx="650" cy="512" r="210" fill="none" stroke="#F3722C" stroke-width="44"/>
<rect x="800" y="640" width="150" height="60" rx="30" fill="#F3722C" transform="rotate(45 800 640)"/>
</svg>